<?xml version="1.0" encoding="UTF-8" standalone="no"?> <svg xmlns:dc="http://purl.org/dc/elements/1.1/" xmlns:cc="http://creativecommons.org/ns#" xmlns:rdf="http://www.w3.org/1999/02/22-rdf-syntax-ns#" xmlns:svg="http://www.w3.org/2000/svg" xmlns="http://www.w3.org/2000/svg" xmlns:sodipodi="http://sodipodi.sourceforge.net/DTD/sodipodi-0.dtd" xmlns:inkscape="http://www.inkscape.org/namespaces/inkscape" sodipodi:docname="favicon.svg" inkscape:version="1.0beta2 (2b71d25, 2019-12-03)" id="svg23123" version="1.1" viewBox="0 0 135.46666 135.46666" height="135.46666mm" width="135.46666mm"><defs id="defs23117"><clipPath id="_clipPath_VFOZsP55f9nMcky1u1jo0xxZu1jOYjZ9"><path d="M 170.415,0.502 H 0 V 175.768 H 170.415 V 0.506 Z" id="path27" inkscape:connector-curvature="0" style="fill:#ffffff"></path></clipPath></defs><metadata id="metadata23120"></metadata><g transform="translate(186.72025,-27.970238)" id="layer1" inkscape:groupmode="layer" inkscape:label="Layer 1"><path d="m -122.2186,50.450592 c -0.002,-1.165477 0.61902,-2.243194 1.62769,-2.826517 1.00868,-0.583911 2.25256,-0.585665 3.2624,-0.0041 1.00985,0.581569 1.63296,1.658115 1.63413,2.823592 0.004,0.865917 -0.33759,1.6979 -0.94841,2.311648 -0.61141,0.613749 -1.44164,0.958946 -2.30756,0.958946 h -0.005 c -1.80497,0 -3.26065,-1.458018 -3.26299,-3.263572 z m 10.66716,4.072736 c -1.75816,-0.39727 -2.8622,-2.14373 -2.4661,-3.902479 0.18956,-0.844268 0.70736,-1.578543 1.43929,-2.040171 0.73135,-0.461628 1.61716,-0.613748 2.46084,-0.421257 h -0.005 c 1.63295,0.351048 2.73524,1.87986 2.55211,3.53973 -0.18312,1.659869 -1.59141,2.912524 -3.26123,2.899652 -0.23578,0 -0.48386,-0.02458 -0.71965,-0.07548 z m -18.70322,-2.429834 c -0.39903,-1.755237 0.69917,-3.502284 2.45441,-3.902479 1.21872,-0.270891 2.48483,0.177865 3.26123,1.155532 0.7764,0.977668 0.92676,2.312819 0.38673,3.437925 -0.54002,1.125692 -1.67566,1.844171 -2.92422,1.850606 -1.52238,-0.0018 -2.84115,-1.056654 -3.17815,-2.541584 z m 25.72359,4.874295 c -1.08415,-0.484446 -1.82018,-1.519451 -1.92082,-2.703066 -0.10063,-1.183031 0.44935,-2.328031 1.43638,-2.988585 0.98702,-0.660554 2.25489,-0.733103 3.31038,-0.18898 1.57035,0.80975 2.211595,2.722374 1.44631,4.314374 -0.76528,1.592585 -2.65918,2.287074 -4.27225,1.566257 z m -33.18628,-1.465038 c -0.78459,-1.621256 -0.10707,-3.571908 1.51419,-4.357085 1.62125,-0.785177 3.57191,-0.107072 4.35708,1.514185 0.78459,1.620669 0.10707,3.571323 -1.51418,4.3565 -1.62126,0.785175 -3.57191,0.107653 -4.35709,-1.5136 z m 39.486999,5.419003 c -0.911552,-0.726668 -1.366742,-1.885125 -1.193563,-3.037731 0.173185,-1.153191 0.948418,-2.126177 2.033737,-2.5527 1.08532,-0.426523 2.315743,-0.241639 3.227882,0.485029 1.350363,1.139151 1.548704,3.145973 0.448169,4.52793 -1.101117,1.381371 -3.101505,1.636466 -4.513882,0.574546 m -45.998932,-0.437054 c -0.54354,-0.674595 -0.79629,-1.537588 -0.70151,-2.39824 0.0942,-0.861236 0.52774,-1.649337 1.20468,-2.189365 1.40828,-1.126278 3.46191,-0.898683 4.58994,0.507848 0.77992,0.980594 0.93028,2.320425 0.38733,3.449628 -0.54296,1.129203 -1.68327,1.848849 -2.93651,1.85236 -0.95954,0 -1.90502,-0.413066 -2.54393,-1.224571 m 51.274588,5.693407 c -0.541197,-0.674597 -0.791611,-1.537003 -0.696829,-2.396485 0.09478,-0.859482 0.527159,-1.646414 1.202338,-2.186442 0.673427,-0.543538 1.535833,-0.796292 2.395899,-0.70268 0.860655,0.09302 1.648169,0.525402 2.189369,1.200583 1.127447,1.409456 0.899267,3.465425 -0.50317,4.592873 -0.578055,0.462212 -1.295947,0.714966 -2.036074,0.716722 -0.960116,0 -1.907361,-0.417748 -2.551533,-1.224571 z m -56.533278,0.607312 c -1.24447,-0.992294 -1.59142,-2.737586 -0.82087,-4.13066 0.77055,-1.393073 2.43335,-2.027299 3.93524,-1.500728 1.5019,0.526571 2.40527,2.060065 2.1373,3.629248 -0.26738,1.568597 -1.62828,2.715937 -3.22028,2.714182 -0.71438,0 -1.43578,-0.235788 -2.03139,-0.712042 z m 60.506553,5.676439 c -0.377376,-0.777571 -0.42945,-1.673326 -0.145682,-2.490097 0.284349,-0.816186 0.881129,-1.486102 1.659284,-1.862308 1.187713,-0.577474 2.607117,-0.382642 3.594727,0.494392 0.987614,0.877034 1.349778,2.263087 0.916235,3.511061 -0.433545,1.247974 -1.576205,2.111551 -2.894972,2.187026 -1.318767,0.07606 -2.553287,-0.650023 -3.12725,-1.840074 m -64.236435,1.632956 c -1.05022,-0.505508 -1.75114,-1.533493 -1.83832,-2.696045 -0.0872,-1.162553 0.45227,-2.283565 1.41531,-2.940024 0.96304,-0.657043 2.2034,-0.750072 3.25421,-0.244563 1.06426,0.497317 1.77922,1.528228 1.87167,2.699556 0.0924,1.171329 -0.45169,2.302288 -1.42467,2.960502 -0.97357,0.658214 -2.22506,0.742466 -3.2782,0.220574 z m 66.707806,5.382145 c -0.195415,-0.843685 -0.04622,-1.731251 0.414237,-2.464939 0.46046,-0.733691 1.194733,-1.253826 2.039586,-1.444562 1.755826,-0.401949 3.504626,0.695074 3.906575,2.450313 0.401951,1.755237 -0.695656,3.504625 -2.450895,3.906575 -0.843101,0.195416 -1.728909,0.0468 -2.462598,-0.411898 -0.73369,-0.459288 -1.254412,-1.191806 -1.446905,-2.035489 z m -68.695316,2.576103 c -1.28835,-0.28786 -2.27713,-1.324033 -2.50356,-2.624665 -0.22701,-1.300632 0.3528,-2.61004 1.46796,-3.316814 1.11516,-0.706777 2.54627,-0.672257 3.62574,0.08835 1.08006,0.760019 1.59493,2.095753 1.30531,3.384099 -0.33525,1.486684 -1.65694,2.542754 -3.18107,2.541581 -0.23813,0 -0.48094,-0.01931 -0.71673,-0.07254 m 69.540769,4.895941 v -0.07782 c 0.04446,-1.766941 1.488442,-3.17698 3.255966,-3.180491 1.768108,-0.0032 3.216763,1.401851 3.268253,3.168787 v 0.08485 c -0.04798,1.766936 -1.494295,3.174641 -3.262404,3.174641 -1.767525,0 -3.21384,-1.407705 -3.261815,-3.174641 m -72.983959,0.04622 c -0.004,-0.867088 0.33818,-1.699655 0.95017,-2.313405 0.61199,-0.614332 1.44398,-0.95836 2.31048,-0.957187 1.79853,0 3.26123,1.455675 3.26825,3.26357 -0.0802,1.742951 -1.51594,3.115547 -3.26064,3.117302 -1.7453,0.0022 -3.18401,-1.367329 -3.26826,-3.11028 z m 74.614575,11.250489 c -1.757582,-0.399022 -2.8587,-2.147238 -2.459088,-3.904819 0.401949,-1.755823 2.146068,-2.858112 3.904816,-2.46611 1.615407,0.375622 2.693705,1.900922 2.509405,3.549091 -0.1843,1.648168 -1.572692,2.897314 -3.231391,2.907262 -0.240468,0 -0.478596,-0.0269 -0.723742,-0.08543 z m -73.621105,-2.412881 c -0.36685,-1.743535 0.73135,-3.459573 2.46786,-3.856257 1.7371,-0.397268 3.47186,0.671088 3.89897,2.400582 0.36684,1.743535 -0.73076,3.459574 -2.46786,3.85684 -1.7371,0.397272 -3.47186,-0.671084 -3.89897,-2.401165 z m 70.226475,9.882578 c -1.624183,-0.78401 -2.304628,-2.73642 -1.520624,-4.3606 0.784592,-1.624179 2.736415,-2.305211 4.360598,-1.521203 1.624178,0.784593 2.305212,2.736413 1.521791,4.361183 -0.545295,1.12744 -1.688537,1.84241 -2.940611,1.8389 -0.490877,0.003 -0.975912,-0.10473 -1.418816,-0.31536 m -67.278843,-1.48259 c -0.78576,-1.62242 -0.10708,-3.57483 1.51535,-4.360595 1.62243,-0.785758 3.57484,-0.107072 4.3606,1.515355 0.49439,1.01043 0.43237,2.20458 -0.16441,3.15826 -0.59678,0.95368 -1.64349,1.53174 -2.7686,1.52881 -1.2152,0 -2.37659,-0.68045 -2.94002,-1.84417 m 62.306263,8.01149 c -0.977668,-0.70502 -1.487859,-1.89156 -1.32696,-3.08629 0.16089,-1.19473 0.966548,-2.20399 2.095754,-2.62584 1.129785,-0.42184 2.399409,-0.18781 3.303941,0.60907 1.308235,1.15261 1.48142,3.129 0.393755,4.49107 -1.087075,1.36265 -3.052357,1.63178 -4.46649,0.61199 z m -57.563023,-0.4862 h 0.007 c -0.54236,-0.67401 -0.79395,-1.537 -0.69917,-2.39707 0.0948,-0.86065 0.52833,-1.64758 1.20468,-2.1882 1.03033,-0.82554 2.45733,-0.94841 3.61404,-0.31184 1.1567,0.63656 1.8155,1.90794 1.66981,3.22027 -0.14628,1.31234 -1.06894,2.40702 -2.33739,2.77386 -1.26845,0.36685 -2.63285,-0.0673 -3.45665,-1.09936 m 51.266986,5.75191 c -1.123935,-1.41004 -0.89166,-3.46366 0.517795,-4.5876 1.41004,-1.12394 3.463668,-0.89225 4.587609,0.51721 1.123935,1.41004 0.892244,3.46425 -0.517213,4.58818 -1.410038,1.12395 -3.463667,0.89226 -4.588191,-0.51779 z m -44.973286,0.53476 c -0.67811,-0.53826 -1.1134,-1.32461 -1.20936,-2.18526 -0.0965,-0.86007 0.15446,-1.72306 0.69625,-2.39766 0.95017,-1.18829 2.59541,-1.56216 3.96566,-0.90043 1.36967,0.66172 2.10044,2.18234 1.75992,3.66552 -0.33993,1.48258 -1.65987,2.53339 -3.18107,2.53223 -0.71439,0 -1.43403,-0.23111 -2.0314,-0.71206 m 37.6791,3.20039 c -0.37737,-0.77874 -0.42944,-1.67567 -0.1451,-2.49303 0.28435,-0.81675 0.8823,-1.48785 1.66104,-1.86405 1.2076,-0.58216 2.64865,-0.3651 3.63158,0.54587 0.983522,0.91097 1.309413,2.33096 0.82087,3.57952 -0.48795,1.24856 -1.69029,2.0706 -3.03071,2.07351 -1.21521,0 -2.37659,-0.68044 -2.9406,-1.84182 m -30.14329,1.54051 c -1.62008,-0.78634 -2.30053,-2.7329 -1.52355,-4.35708 0.78226,-1.6236 2.73291,-2.30522 4.35651,-1.52296 1.62359,0.78225 2.30521,2.73232 1.52296,4.3565 -0.78226,1.6236 -2.73232,2.3058 -4.35592,1.52354 z m 22.1903,0.46632 c -0.29488,-1.28777 0.2159,-2.62642 1.29361,-3.39112 1.07772,-0.7647 2.50999,-0.80508 3.62808,-0.10183 1.11867,0.70325 1.70375,2.0115 1.48142,3.31388 -0.22233,1.30298 -1.2076,2.34325 -2.49595,2.63578 -1.75758,0.39903 -3.50696,-0.70151 -3.90716,-2.45908 m -13.77803,2.46903 c -1.75816,-0.39962 -2.85928,-2.14841 -2.46026,-3.90658 0.39903,-1.75757 2.14783,-2.85928 3.90599,-2.46026 1.75817,0.40019 2.85928,2.14959 2.45909,3.90776 -0.39961,1.75815 -2.149,2.85869 -3.90716,2.45908 m 5.58166,-2.28181 c -4.4e-4,-1.80263 1.45977,-3.26416 3.2624,-3.26474 1.80204,-4.5e-4 3.26357,1.45977 3.26415,3.2624 0.001,1.80204 -1.45977,3.26357 -3.26181,3.26475 -1.80263,4.3e-4 -3.26416,-1.46037 -3.26474,-3.26241" id="path24" inkscape:connector-curvature="0" style="isolation:isolate;fill:#4d4d4d;fill-opacity:1;fill-rule:evenodd;stroke-width:0.585078"></path><g style="isolation:isolate" clip-path="url(#_clipPath_VFOZsP55f9nMcky1u1jo0xxZu1jOYjZ9)" id="g29" transform="matrix(0.58507925,0,0,0.58507925,-168.84005,35.878608)"><path d="m 78.566,7.209 c -0.004,-3.696 2.908,-6.703 6.509,-6.711 3.592,0 6.508,2.99 6.528,6.695 0,3.696 -2.911,6.703 -6.516,6.707 -3.592,0.004 -6.521,-2.99 -6.521,-6.686 m 25.211,9.166 c -3.481,-0.955 -5.549,-4.623 -4.627,-8.207 0.922,-3.572 4.485,-5.698 7.97,-4.751 3.472,0.955 5.544,4.61 4.627,8.194 -0.711,2.908 -3.303,4.964 -6.297,4.992 -0.552,0 -1.121,-0.091 -1.678,-0.228 M 58.423,11.707 c -0.934,-3.571 1.13,-7.251 4.602,-8.211 3.476,-0.955 7.052,1.155 7.991,4.735 0.926,3.568 -1.134,7.252 -4.61,8.207 -0.55,0.156 -1.119,0.236 -1.691,0.237 -2.98,-0.036 -5.563,-2.076 -6.287,-4.968 m 62.759,12.057 c -3.123,-1.848 -4.195,-5.947 -2.392,-9.149 0.831,-1.529 2.248,-2.655 3.925,-3.12 1.677,-0.464 3.471,-0.227 4.971,0.657 3.115,1.844 4.182,5.951 2.392,9.145 -1.204,2.164 -3.406,3.36 -5.653,3.36 -1.14,0.001 -2.26,-0.308 -3.239,-0.893 M 40.124,21.451 c -1.815,-3.202 -0.751,-7.306 2.355,-9.158 1.497,-0.89 3.291,-1.134 4.971,-0.677 1.68,0.457 3.103,1.577 3.942,3.102 1.807,3.207 0.748,7.302 -2.367,9.171 -0.987,0.593 -2.118,0.902 -3.269,0.893 -2.343,-0.006 -4.498,-1.281 -5.632,-3.331 z m 96.023,14.092 c -2.549,-2.64 -2.557,-6.821 -0.017,-9.47 1.201,-1.258 2.863,-1.972 4.602,-1.976 1.739,-0.003 3.404,0.703 4.61,1.956 2.554,2.612 2.558,6.852 0.017,9.469 -1.202,1.265 -2.874,1.978 -4.619,1.969 -1.732,0.004 -3.392,-0.7 -4.593,-1.948 z M 24.882,35.725 c -2.547,-2.647 -2.55,-6.833 -0.008,-9.485 1.203,-1.252 2.864,-1.96 4.601,-1.963 1.736,-0.002 3.399,0.702 4.606,1.95 2.559,2.625 2.559,6.865 0.021,9.486 -1.203,1.258 -2.867,1.97 -4.607,1.972 -1.741,0.003 -3.407,-0.705 -4.613,-1.96 z m 122.769,15.16 c -1.806,-3.19 -0.752,-7.302 2.363,-9.158 1.497,-0.89 3.29,-1.134 4.97,-0.675 1.679,0.459 3.099,1.581 3.935,3.109 v -0.013 c 1.807,3.202 0.752,7.31 -2.355,9.166 -1.038,0.619 -2.16,0.914 -3.273,0.914 -2.347,-0.011 -4.504,-1.29 -5.64,-3.343 z m -133.916,2.67 c -3.119,-1.848 -4.195,-5.951 -2.388,-9.153 0.834,-1.529 2.253,-2.653 3.931,-3.116 1.678,-0.464 3.473,-0.227 4.973,0.657 3.115,1.852 4.178,5.947 2.384,9.154 -1.204,2.159 -3.397,3.355 -5.657,3.355 C 15.836,54.45 14.716,54.14 13.735,53.555 Z M 154.894,68.76 h 0.009 c -0.935,-3.567 1.121,-7.247 4.593,-8.207 3.476,-0.971 7.048,1.147 7.991,4.727 0.934,3.572 -1.121,7.243 -4.602,8.207 -0.553,0.16 -1.126,0.241 -1.703,0.24 -2.981,-0.035 -5.563,-2.075 -6.288,-4.967 z M 7.476,73.748 c -3.481,-0.955 -5.541,-4.622 -4.623,-8.19 0.918,-3.584 4.49,-5.711 7.97,-4.755 3.489,0.947 5.553,4.622 4.627,8.198 -0.718,2.9 -3.309,4.945 -6.296,4.971 -0.557,0 -1.113,-0.066 -1.678,-0.224 z m 149.906,14.391 v -0.17 c -0.004,-3.705 2.907,-6.703 6.508,-6.712 3.601,-0.016 6.521,2.982 6.521,6.679 v 0.203 h 0.004 c 0,3.701 -2.916,6.699 -6.516,6.699 -3.597,0 -6.521,-2.998 -6.521,-6.699 M 0,88.222 c -0.004,-3.696 2.907,-6.695 6.504,-6.703 3.605,0 6.521,2.999 6.525,6.703 0,3.692 -2.908,6.708 -6.513,6.708 -3.592,0 -6.512,-2.999 -6.52,-6.704 m 159.567,27.329 c -3.477,-0.956 -5.545,-4.631 -4.619,-8.207 0.926,-3.576 4.506,-5.69 7.983,-4.747 3.472,0.963 5.54,4.635 4.61,8.215 -0.723,2.895 -3.309,4.937 -6.292,4.971 -0.561,0 -1.13,-0.087 -1.682,-0.228 M 2.903,110.907 c -0.93,-3.58 1.13,-7.247 4.606,-8.223 3.476,-0.956 7.048,1.167 7.987,4.747 0.93,3.572 -1.134,7.251 -4.606,8.207 -0.552,0.152 -1.122,0.229 -1.695,0.228 -2.981,-0.028 -5.568,-2.066 -6.292,-4.959 z m 147.215,23.495 c -3.119,-1.861 -4.178,-5.952 -2.384,-9.154 0.832,-1.531 2.251,-2.657 3.931,-3.12 1.68,-0.462 3.476,-0.22 4.974,0.67 3.11,1.852 4.178,5.947 2.375,9.153 -1.133,2.057 -3.291,3.34 -5.64,3.352 -1.147,-0.001 -2.272,-0.312 -3.256,-0.901 M 11.442,132.03 c -1.802,-3.198 -0.747,-7.309 2.367,-9.153 1.497,-0.891 3.291,-1.135 4.971,-0.675 1.68,0.46 3.1,1.584 3.934,3.113 1.811,3.198 0.748,7.293 -2.367,9.153 -0.982,0.596 -2.108,0.91 -3.256,0.91 -2.252,0 -4.44,-1.205 -5.649,-3.348 z m 124.821,18.067 c -2.548,-2.647 -2.548,-6.835 0,-9.482 1.204,-1.251 2.866,-1.957 4.602,-1.957 1.736,0 3.397,0.706 4.602,1.957 2.55,2.621 2.55,6.853 0,9.469 -1.201,1.256 -2.862,1.967 -4.6,1.97 -1.737,0.002 -3.4,-0.705 -4.604,-1.957 z m -111.261,0.058 c -2.544,-2.644 -2.544,-6.826 0,-9.469 1.202,-1.256 2.863,-1.967 4.601,-1.97 1.737,-0.003 3.401,0.702 4.607,1.953 2.55,2.617 2.55,6.853 0.004,9.482 -1.202,1.256 -2.866,1.967 -4.605,1.967 -1.739,0.001 -3.403,-0.708 -4.607,-1.963 z m 93.942,11.434 c -1.807,-3.202 -0.747,-7.31 2.372,-9.166 1.5,-0.885 3.294,-1.123 4.973,-0.661 1.679,0.462 3.098,1.584 3.935,3.111 1.799,3.206 0.735,7.297 -2.375,9.158 h -0.005 c -0.987,0.585 -2.112,0.894 -3.26,0.897 -2.346,-0.01 -4.503,-1.287 -5.64,-3.339 z m -76.307,2.488 c -3.115,-1.849 -4.182,-5.956 -2.376,-9.162 0.836,-1.526 2.255,-2.648 3.932,-3.109 1.678,-0.461 3.47,-0.222 4.969,0.662 3.115,1.853 4.182,5.952 2.384,9.154 -1.134,2.059 -3.294,3.342 -5.645,3.352 -1.109,0 -2.23,-0.283 -3.264,-0.897 z m 56.679,3.974 c -0.93,-3.559 1.142,-7.243 4.61,-8.194 3.476,-0.959 7.056,1.163 7.978,4.73 0.939,3.581 -1.133,7.252 -4.601,8.207 -0.552,0.155 -1.122,0.236 -1.695,0.241 -2.986,-0.038 -5.571,-2.086 -6.292,-4.984 z m -36.104,4.776 c -3.48,-0.955 -5.549,-4.626 -4.618,-8.206 0.918,-3.572 4.493,-5.699 7.97,-4.743 v -0.013 c 3.48,0.96 5.548,4.631 4.614,8.211 -0.717,2.902 -3.308,4.949 -6.296,4.976 -0.564,-0.002 -1.126,-0.077 -1.67,-0.225 z m 15.521,-3.75 c -0.005,-3.7 2.915,-6.707 6.512,-6.707 3.601,0 6.52,2.99 6.529,6.703 0,3.696 -2.928,6.699 -6.521,6.699 -3.601,0.008 -6.52,-2.99 -6.52,-6.695 z" id="path31" inkscape:connector-curvature="0" style="fill:#ee7e3c;fill-rule:evenodd"></path></g><path d="m -140.29755,142.99843 1.23159,1.54052 c 0,0 4.69234,-2.6001 9.35542,-2.46905 3.72052,0.10233 7.26083,1.28835 10.53435,3.12492 4.74558,2.66621 9.22144,5.77356 14.25897,7.82485 1.3919,0.56578 2.8037,1.0543 4.24007,1.44572 1.559819,0.41307 3.158841,0.72141 4.772488,0.7606 8.487746,0.24047 18.243942,-4.43255 22.883035,-14.22971 l -1.830124,-1.65284 c 0,0 -5.70745,9.7831 -17.289092,9.35542 -11.585747,-0.41308 -21.014297,-9.69536 -35.564627,-9.77316 0,0 -6.96186,-0.0363 -12.59208,4.07273 z" id="path33" inkscape:connector-curvature="0" style="isolation:isolate;fill:#ee7e3c;fill-rule:evenodd;stroke-width:0.585078"></path></g></svg> 